<?xml version="1.0" encoding="UTF-8"?>
<svg id="Capa_1" data-name="Capa 1" xmlns="http://www.w3.org/2000/svg" viewBox="0 0 530 147.61">
  <defs>
    <style>
      .cls-1 {
        fill: #a36c4c;
      }

      .cls-1, .cls-2, .cls-3, .cls-4 {
        stroke-width: 0px;
      }

      .cls-2 {
        fill: #632e23;
      }

      .cls-3 {
        fill: #f1bd85;
      }

      .cls-4 {
        fill: #f1bd84;
      }
    </style>
  </defs>
  <g>
    <path class="cls-4" d="m134.79,73.75c0,17.15-6.7,33.27-18.86,45.37-12.1,12.04-28.58,18.77-45.65,18.64-16.91-.13-32.79-6.77-44.76-18.75-12.09-12.09-18.75-28.16-18.75-45.26s6.66-33.17,18.75-45.26c11.18-11.18,25.76-17.71,41.41-18.63,2.09-.12,3.85,1.54,3.85,3.64v14.98c0,1.91-1.48,3.48-3.38,3.63-21.86,1.76-39.02,20.41-38.39,42.86.62,21.87,18.25,39.69,40.11,40.54,23.73.92,43.33-18.06,43.44-41.57.03-6.11,5.03-11.31,11.15-11.3,6.12.02,11.08,4.99,11.08,11.11Z"/>
    <path class="cls-1" d="m104.15,72.43c.74,19.01-14.51,34.71-33.36,34.71-4.63,0-8.38-3.78-8.33-8.41.04-4.61,3.92-8.21,8.52-8.26,9.47-.11,17.07-8.12,16.5-17.74-.5-8.46-7.4-15.28-15.87-15.68-8.55-.41-15.8,5.65-17.27,13.7-.32,1.74-1.82,3-3.58,3h-9.5c-2.17,0-3.88-1.88-3.62-4.03,2.05-16.94,16.83-30.01,34.47-29.33,17.33.67,31.37,14.72,32.04,32.04Z"/>
    <circle class="cls-2" cx="70.78" cy="73.75" r="8.33"/>
  </g>
  <g>
    <g>
      <path class="cls-3" d="m213.88,19.8v11.91c0,2.12-.39,3.57-1.19,4.37-.8.79-2.25,1.19-4.37,1.19h-19.72v65.39c0,2.03-.4,3.46-1.2,4.3-.79.84-2.25,1.26-4.36,1.26h-14.96c-2.12,0-3.57-.42-4.37-1.26-.8-.84-1.19-2.27-1.19-4.3V37.27h-13.77c-6.36,0-11.52-5.16-11.52-11.52s5.15-11.52,11.52-11.52h59.56c2.12,0,3.57.42,4.37,1.26.79.84,1.19,2.27,1.19,4.3Z"/>
      <path class="cls-3" d="m446.59,19.8v11.91c0,2.12.39,3.57,1.19,4.37.8.79,2.25,1.19,4.37,1.19h19.72v65.39c0,2.03.4,3.46,1.2,4.3.79.84,2.25,1.26,4.36,1.26h14.96c2.12,0,3.57-.42,4.37-1.26.8-.84,1.19-2.27,1.19-4.3V37.27h13.77c6.36,0,11.52-5.16,11.52-11.52,0-6.36-5.15-11.52-11.52-11.52h-59.56c-2.12,0-3.57.42-4.37,1.26-.79.84-1.19,2.27-1.19,4.3Z"/>
      <path class="cls-3" d="m312.29,39.98c-.75-.4-2.01-.6-3.77-.6h-11.91c-3.09,0-5.16.33-6.22.99s-1.76,2.05-2.12,4.17l-3.18,17.47c-.88,4.94-1.41,11.87-1.59,20.78h-1.06c-.44-9.18-1.15-16.1-2.12-20.78l-4.1-17.61c-.44-2.12-1.19-3.49-2.25-4.1-1.06-.62-3.09-.93-6.09-.93h-8.47c-3.09,0-5.18.33-6.29.99s-1.83,2.05-2.18,4.17l-3.97,17.47c-.88,4.41-1.59,11.34-2.12,20.78h-1.06c-.26-9.53-.79-16.46-1.59-20.78l-3.31-17.61c-.35-2.12-1.08-3.49-2.18-4.1-1.1-.62-3.15-.93-6.16-.93h-12.44c-1.76,0-3.02.2-3.77.6-.75.4-1.13,1.08-1.13,2.05,0,.62.22,1.68.66,3.18l15.75,58.51c.44,1.68,1.21,2.85,2.32,3.51s2.67.99,4.7.99h12.05c1.94,0,3.46-.33,4.57-.99s1.83-1.83,2.18-3.51l4.5-17.74c1.15-5.03,2.07-11.3,2.78-18.8h.93c.53,7.41,1.32,13.68,2.38,18.8l4.24,17.74c.44,1.68,1.21,2.85,2.32,3.51s2.67.99,4.7.99h12.97c1.94,0,3.44-.33,4.5-.99s1.85-1.83,2.38-3.51l15.62-58.51c.44-1.5.66-2.56.66-3.18,0-.97-.38-1.65-1.13-2.05Z"/>
      <path class="cls-3" d="m344.2,40.51c-.75-.75-2.1-1.13-4.04-1.13h-14.43c-1.94,0-3.27.38-3.97,1.13s-1.06,2.05-1.06,3.9v58.77c0,1.85.35,3.15,1.06,3.9.71.75,2.03,1.13,3.97,1.13h14.43c1.94,0,3.29-.38,4.04-1.13.75-.75,1.13-2.05,1.13-3.9v-58.77c0-1.85-.38-3.15-1.13-3.9Z"/>
      <path class="cls-3" d="m380.33,40.51c-.75-.75-2.1-1.13-4.04-1.13h-14.43c-1.94,0-3.27.38-3.97,1.13s-1.06,2.05-1.06,3.9v58.77c0,1.85.35,3.15,1.06,3.9.71.75,2.03,1.13,3.97,1.13h14.43c1.94,0,3.29-.38,4.04-1.13.75-.75,1.13-2.05,1.13-3.9v-58.77c0-1.85-.38-3.15-1.13-3.9Z"/>
      <path class="cls-3" d="m450.42,75.39c-1.94-2.91-5.01-5.12-9.2-6.62-4.19-1.5-9.86-2.56-17.01-3.18-4.32-.35-7.21-.82-8.67-1.39-1.46-.57-2.18-1.57-2.18-2.98,0-1.32.6-2.27,1.79-2.85,1.19-.57,3.38-.86,6.55-.86,2.47,0,4.43.33,5.89.99,1.46.66,2.67,1.61,3.64,2.85.18.18.46.51.86.99.4.49.82.9,1.26,1.26.44.35.97.53,1.59.53.88,0,1.94-.31,3.18-.93l10.06-4.37c2.47-.97,3.71-2.34,3.71-4.1,0-.97-.31-2.03-.93-3.18-2.56-4.68-6.24-8.21-11.05-10.59-4.81-2.38-11.32-3.57-19.52-3.57-9.62,0-16.94,2.03-21.97,6.09-5.03,4.06-7.54,9.57-7.54,16.55s2.34,12.4,7.02,15.49,11.52,4.94,20.52,5.56c3.53.26,6.18.55,7.94.86,1.76.31,2.98.77,3.64,1.39.66.62.99,1.5.99,2.65,0,1.5-.73,2.56-2.18,3.18-1.46.62-3.9.93-7.35.93-5.12,0-8.43-1.37-9.93-4.1-.53-.97-1.08-1.68-1.65-2.12s-1.3-.66-2.18-.66c-.97,0-2.03.22-3.18.66l-10.46,3.71c-2.56.97-3.84,2.34-3.84,4.1,0,.71.22,1.63.66,2.78,2.03,5.21,5.69,9.13,10.99,11.78,5.29,2.65,12.13,3.97,20.52,3.97,9.88,0,17.52-2.1,22.9-6.29,5.38-4.19,8.07-9.91,8.07-17.14,0-4.68-.97-8.47-2.91-11.38Z"/>
    </g>
    <circle class="cls-3" cx="333.01" cy="22.16" r="12.31"/>
    <circle class="cls-3" cx="369.15" cy="125.45" r="12.31"/>
  </g>
</svg>