<?xml version="1.0" encoding="UTF-8"?>
<svg id="Capa_1" data-name="Capa 1" xmlns="http://www.w3.org/2000/svg" viewBox="0 0 27.39 23.59">
  <defs>
    <style>
      .cls-1 {
        fill: #a36c4c;
      }

      .cls-1, .cls-2, .cls-3 {
        stroke-width: 0px;
      }

      .cls-2 {
        fill: #632e23;
      }

      .cls-3 {
        fill: #f1bd84;
      }
    </style>
  </defs>
  <path class="cls-3" d="m23.19,11.78c0,2.54-.99,4.93-2.8,6.73-1.79,1.79-4.24,2.78-6.77,2.76-2.51-.02-4.86-1-6.64-2.78-1.79-1.79-2.78-4.18-2.78-6.71s.99-4.92,2.78-6.71c1.66-1.66,3.82-2.63,6.14-2.76.31-.02.57.23.57.54v2.22c0,.28-.22.52-.5.54-3.24.26-5.79,3.03-5.69,6.36.09,3.24,2.71,5.89,5.95,6.01,3.52.14,6.43-2.68,6.44-6.17,0-.91.75-1.68,1.65-1.68.91,0,1.64.74,1.64,1.65Z"/>
  <path class="cls-1" d="m18.65,11.59c.11,2.82-2.15,5.15-4.95,5.15-.69,0-1.24-.56-1.24-1.25,0-.68.58-1.22,1.26-1.23,1.4-.02,2.53-1.2,2.45-2.63-.07-1.25-1.1-2.27-2.35-2.33-1.27-.06-2.34.84-2.56,2.03-.05.26-.27.44-.53.44h-1.41c-.32,0-.58-.28-.54-.6.3-2.51,2.5-4.45,5.11-4.35,2.57.1,4.65,2.18,4.75,4.75Z"/>
  <circle class="cls-2" cx="13.7" cy="11.78" r="1.24"/>
</svg>