<?xml version="1.0" encoding="UTF-8"?>
<svg id="Capa_1" data-name="Capa 1" xmlns="http://www.w3.org/2000/svg" viewBox="0 0 27.39 23.59">
  <defs>
    <style>
      .cls-1 {
        fill: #a36c4c;
        stroke-width: 0px;
      }
    </style>
  </defs>
  <path class="cls-1" d="m22.27,9.89h-2.16c-.4,0-.74.29-.81.68-.33,1.83-1.98,3.21-3.92,3.11-1.92-.09-3.49-1.64-3.61-3.56-.13-2.19,1.6-4.01,3.75-4.03,1.04-.01,1.93-.83,1.94-1.88.01-1.05-.84-1.91-1.89-1.91-4.28,0-7.75,3.57-7.58,7.89.05,1.28.43,2.48,1.04,3.53l-4.58,4.58c-.36.36-.03,1.29.76,2.07.78.78,1.71,1.12,2.07.76l4.61-4.61c1.01.56,2.16.9,3.38.95,4.01.15,7.36-2.81,7.83-6.66.06-.49-.33-.92-.82-.92Z"/>
</svg>